<?xml version="1.0" standalone="no"?>
<!DOCTYPE svg PUBLIC "-//W3C//DTD SVG 20010904//EN"
 "http://www.w3.org/TR/2001/REC-SVG-20010904/DTD/svg10.dtd">
<svg version="1.0" xmlns="http://www.w3.org/2000/svg"
 width="785.000000pt" height="785.000000pt" viewBox="0 0 785.000000 785.000000"
 preserveAspectRatio="xMidYMid meet">
<metadata>
Created by potrace 1.11, written by Peter Selinger 2001-2013
</metadata>
<g transform="translate(0.000000,785.000000) scale(0.100000,-0.100000)"
fill="#000000" stroke="none">
<path d="M3915 7690 c-13 -26 -110 -212 -177 -340 -30 -58 -102 -195 -159
-305 -57 -110 -127 -245 -156 -300 -29 -55 -65 -126 -79 -157 -15 -32 -31 -58
-35 -58 -5 0 -8 -3 -7 -7 1 -10 -29 -72 -126 -258 -137 -262 -209 -400 -239
-460 -17 -33 -34 -61 -39 -63 -4 -2 -8 -11 -8 -21 0 -9 -4 -21 -9 -27 -4 -5
-35 -61 -67 -124 -33 -63 -63 -118 -67 -121 -5 -3 -7 -8 -6 -10 3 -4 -49 -108
-138 -274 -17 -33 -46 -89 -64 -125 -18 -36 -59 -113 -90 -172 -31 -60 -54
-108 -50 -108 3 0 1 -4 -4 -8 -6 -4 -35 -54 -64 -112 -30 -58 -76 -148 -104
-200 -27 -52 -58 -113 -69 -135 -11 -22 -24 -47 -29 -55 -4 -8 -25 -49 -46
-90 -20 -41 -46 -87 -56 -102 -10 -16 -15 -28 -10 -28 4 0 3 -4 -2 -8 -6 -4
-35 -56 -65 -117 -30 -60 -57 -112 -60 -115 -3 -3 -19 -32 -35 -65 -15 -33
-33 -63 -38 -66 -5 -3 -8 -9 -8 -13 1 -3 -11 -30 -25 -59 -37 -73 -167 -324
-224 -432 -26 -49 -89 -171 -140 -270 -51 -99 -114 -220 -140 -270 -26 -49
-79 -152 -119 -227 -143 -277 -210 -406 -281 -543 -118 -226 -187 -359 -277
-535 -47 -91 -107 -205 -133 -255 -26 -49 -82 -157 -125 -240 -43 -82 -103
-199 -135 -260 -31 -60 -88 -171 -126 -245 -38 -74 -72 -136 -76 -138 -42 -19
99 -22 972 -22 l980 0 46 98 c26 53 93 193 150 310 57 118 104 218 104 223 0
5 5 9 10 9 6 0 9 3 8 8 -3 7 44 112 63 142 5 8 12 22 16 30 3 8 41 89 85 178
43 90 78 168 78 173 0 5 5 9 10 9 6 0 10 6 10 14 0 8 16 45 35 83 19 37 35 74
35 81 0 6 5 12 10 12 6 0 10 5 10 11 0 6 33 79 74 162 161 333 176 364 176
375 0 7 5 12 10 12 6 0 10 4 10 10 0 5 43 98 95 205 52 107 95 197 95 200 1 2
24 51 53 107 28 57 52 105 52 108 1 3 26 57 57 120 31 63 97 201 147 305 50
105 105 215 121 246 16 31 26 59 23 63 -4 3 -1 6 5 6 7 0 12 4 12 9 0 8 152
332 180 384 20 36 30 56 107 215 l78 164 84 -174 c47 -95 85 -175 86 -178 0
-3 19 -43 42 -90 22 -47 73 -152 113 -235 100 -208 183 -381 242 -505 28 -58
82 -170 120 -250 39 -80 94 -194 123 -255 29 -60 83 -173 120 -250 37 -77 86
-180 110 -230 23 -49 72 -151 108 -225 35 -74 93 -193 127 -265 34 -71 96
-199 136 -283 41 -84 74 -157 74 -163 0 -5 5 -9 10 -9 6 0 10 -7 10 -16 0 -9
9 -33 20 -53 17 -33 99 -202 220 -456 26 -55 84 -175 128 -267 l81 -168 986 0
986 0 -61 117 c-34 65 -66 123 -72 130 -6 7 -7 13 -3 13 5 0 0 9 -10 20 -10
11 -14 20 -9 20 5 0 5 4 -1 8 -5 4 -33 52 -61 107 -63 123 -180 349 -287 555
-45 85 -106 203 -137 262 -30 59 -79 153 -108 210 -30 57 -92 177 -139 268
-47 91 -90 169 -94 175 -5 5 -9 17 -9 26 0 10 -3 19 -8 21 -4 2 -32 50 -61
108 -30 58 -75 146 -101 195 -45 86 -141 271 -264 510 -32 61 -61 114 -67 120
-5 5 -9 17 -9 26 0 10 -3 19 -7 21 -5 2 -41 68 -82 148 -99 195 -151 292 -163
308 -6 6 -7 12 -3 12 4 0 3 6 -2 13 -11 13 -85 153 -194 367 -35 69 -68 128
-74 132 -5 4 -6 8 -1 8 5 0 2 8 -6 18 -9 9 -19 28 -23 42 -4 14 -11 27 -14 30
-4 3 -27 46 -51 95 -25 50 -47 92 -50 95 -3 3 -24 43 -48 90 -23 47 -76 150
-118 230 -41 80 -105 204 -142 275 -36 72 -76 147 -89 168 -13 20 -20 37 -17
37 4 0 1 6 -5 13 -6 8 -30 51 -54 98 -24 46 -83 161 -132 254 -48 94 -114 220
-145 280 -116 223 -189 364 -263 505 -158 307 -194 376 -207 400 -7 14 -17 32
-21 40 -13 26 -120 232 -179 345 -68 131 -172 330 -265 510 -37 72 -68 131
-69 132 -1 1 -6 -7 -11 -17z"/>
</g>
</svg>
