
<svg width="169px" height="128px" viewBox="0 0 169 128" version="1.1" xmlns="http://www.w3.org/2000/svg" xmlns:xlink="http://www.w3.org/1999/xlink">
    <!-- Generator: Sketch 50.2 (55047) - http://www.bohemiancoding.com/sketch -->
    <desc>Created with Sketch.</desc>
    <defs></defs>
    <g id="Visuals---desktop" stroke="none" stroke-width="1" fill="none" fill-rule="evenodd">
        <g id="Services" transform="translate(-498.000000, -1477.000000)">
            <g id="Group-Copy-5" transform="translate(500.000000, 1479.000000)">
                <path d="M114.342653,46.5949793 C114.342653,20.9729103 89.4963368,0.206013793 58.8451789,0.206013793 C28.1940211,0.206013793 3.34770526,20.9817379 3.34770526,46.5993931 C3.34328421,59.0462897 9.24096842,70.323531 18.7860211,78.6567724 C14.6479158,95.199669 0.208757895,102.654566 0.208757895,102.654566 C0.208757895,102.654566 23.3706526,104.892359 44.3794947,91.3420138 C48.9950737,92.383669 53.8317053,92.9883586 58.8407579,92.9883586 C89.4919158,92.9883586 114.342653,72.2170483 114.342653,46.5949793 Z" id="Stroke-1" stroke="#EC1651" stroke-width="4.42105263" stroke-linejoin="round"></path>
                <path d="M63.6544,73.6788966 C63.6676632,50.8110345 85.5562947,32.2642759 112.5424,32.2422069 C139.528505,32.2245517 161.390611,50.7448276 161.377347,73.6126897 C161.368505,84.7222069 156.169347,94.790069 147.760505,102.231724 C151.394611,116.991448 164.100716,123.634207 164.100716,123.634207 C164.100716,123.634207 143.710821,125.646897 125.221979,113.566345 C121.154611,114.502069 116.901558,115.044966 112.489347,115.049379 C85.5032421,115.067034 63.6411368,96.5467586 63.6544,73.6788966" id="Fill-3" fill="#EC1651"></path>
                <path d="M63.6544,73.6788966 C63.6676632,50.8110345 85.5562947,32.2642759 112.5424,32.2422069 C139.528505,32.2245517 161.390611,50.7448276 161.377347,73.6126897 C161.368505,84.7222069 156.169347,94.790069 147.760505,102.231724 C151.394611,116.991448 164.100716,123.634207 164.100716,123.634207 C164.100716,123.634207 143.710821,125.646897 125.221979,113.566345 C121.154611,114.502069 116.901558,115.044966 112.489347,115.049379 C85.5032421,115.067034 63.6411368,96.5467586 63.6544,73.6788966 Z" id="Stroke-5" stroke="#EC1651" stroke-width="4.42105263" stroke-linejoin="round"></path>
                <path d="M94.8639368,81.9613793 C97.9763579,81.9613793 100.5052,79.4411034 100.5052,76.3293793 C100.5052,73.222069 97.9763579,70.7017931 94.8639368,70.7017931 C91.7515158,70.7017931 89.2226737,73.222069 89.2226737,76.3293793 C89.2226737,79.4411034 91.7515158,81.9613793 94.8639368,81.9613793" id="Fill-7" fill="#FEFEFE"></path>
                <path d="M113.878,81.9613793 C116.990421,81.9613793 119.519263,79.4411034 119.519263,76.3293793 C119.519263,73.222069 116.990421,70.7017931 113.878,70.7017931 C110.765579,70.7017931 108.236737,73.222069 108.236737,76.3293793 C108.236737,79.4411034 110.765579,81.9613793 113.878,81.9613793" id="Fill-9" fill="#FEFEFE"></path>
                <path d="M132.892063,81.9613793 C136.004484,81.9613793 138.533326,79.4411034 138.533326,76.3293793 C138.533326,73.222069 136.004484,70.7017931 132.892063,70.7017931 C129.779642,70.7017931 127.2508,73.222069 127.2508,76.3293793 C127.2508,79.4411034 129.779642,81.9613793 132.892063,81.9613793" id="Fill-11" fill="#FEFEFE"></path>
            </g>
        </g>
    </g>
</svg>
