<svg width="152px" height="117px" viewBox="0 0 152 117" version="1.1" xmlns="http://www.w3.org/2000/svg" xmlns:xlink="http://www.w3.org/1999/xlink">
    <!-- Generator: Sketch 50.2 (55047) - http://www.bohemiancoding.com/sketch -->
    <desc>Created with Sketch.</desc>
    <defs></defs>
    <g id="Visuals---desktop" stroke="none" stroke-width="1" fill="none" fill-rule="evenodd">
        <g id="Services" transform="translate(-508.000000, -2409.000000)">
            <g id="Group" transform="translate(508.000000, 2409.000000)">
                <path d="M121.876875,99.479114 C121.876875,107.208597 128.158125,113.47898 135.909375,113.47898 C143.656875,113.47898 149.938125,107.208597 149.938125,99.479114 C149.938125,91.7496314 143.656875,85.4792477 135.909375,85.4792477 C128.158125,85.4792477 121.876875,91.7496314 121.876875,99.479114 Z" id="Stroke-1" stroke="#EC1651" stroke-width="3.75"></path>
                <path d="M110.511375,99.3073892 L95.972625,84.8024503" id="Stroke-3" stroke="#EC1651" stroke-width="4.5" stroke-linecap="round" stroke-linejoin="round"></path>
                <g id="Group-16" transform="translate(0.000000, 0.563437)">
                    <path d="M95.973,113.73451 L110.51175,99.2295706" id="Stroke-4" stroke="#EC1651" stroke-width="4.5" stroke-linecap="round" stroke-linejoin="round"></path>
                    <path d="M33.66225,98.9156773 C33.66225,105.017703 38.6235,109.967416 44.73975,109.967416 C50.856,109.967416 55.8135,105.017703 55.8135,98.9156773 C55.8135,92.8136512 50.856,87.863939 44.73975,87.863939 C38.6235,87.863939 33.66225,92.8136512 33.66225,98.9156773" id="Fill-6" fill="#EC1651"></path>
                    <path d="M1.876875,15.3063209 C1.876875,23.0358035 8.158125,29.3061872 15.909375,29.3061872 C23.656875,29.3061872 29.938125,23.0358035 29.938125,15.3063209 C29.938125,7.57683837 23.656875,1.30645465 15.909375,1.30645465 C8.158125,1.30645465 1.876875,7.57683837 1.876875,15.3063209 Z" id="Stroke-8" stroke="#EC1651" stroke-width="3.75"></path>
                    <path d="M41.301375,15.8360086 C41.301375,15.8360086 68.725125,15.4136956 68.725125,40.4391113 L68.725125,77.9828468 C68.725125,77.9828468 67.663875,98.1333759 91.900125,98.1333759 L110.395125,98.1333759" id="Stroke-10" stroke="#EC1651" stroke-width="4.5" stroke-linecap="round" stroke-linejoin="round"></path>
                    <path d="M14.293125,58.6105038 C14.293125,64.7125299 19.254375,69.6622422 25.370625,69.6622422 C31.486875,69.6622422 36.444375,64.7125299 36.444375,58.6105038 C36.444375,52.5084776 31.486875,47.5587654 25.370625,47.5587654 C19.254375,47.5587654 14.293125,52.5084776 14.293125,58.6105038" id="Fill-12" fill="#EC1651"></path>
                    <path d="M90,43.7991541 C90,49.9011802 94.96125,54.8508924 101.0775,54.8508924 C107.19375,54.8508924 112.15125,49.9011802 112.15125,43.7991541 C112.15125,37.6971279 107.19375,32.7474157 101.0775,32.7474157 C94.96125,32.7474157 90,37.6971279 90,43.7991541" id="Fill-14" fill="#EC1651"></path>
                </g>
            </g>
        </g>
    </g>
</svg>
