
<svg width="164px" height="99px" viewBox="0 0 164 99" version="1.1" xmlns="http://www.w3.org/2000/svg" xmlns:xlink="http://www.w3.org/1999/xlink">
    <!-- Generator: Sketch 50.2 (55047) - http://www.bohemiancoding.com/sketch -->
    <desc>Created with Sketch.</desc>
    <defs>
        <polygon id="path-1" points="1.62968785 2.93042788 40.8744755 2.93042788 40.8744755 55.0175565 1.62968785 55.0175565"></polygon>
        <polygon id="path-3" points="0.184633268 1.9304538 15.8359091 1.9304538 15.8359091 18.7927273 0.184633268 18.7927273"></polygon>
    </defs>
    <g id="Visuals---desktop" stroke="none" stroke-width="1" fill="none" fill-rule="evenodd">
        <g id="Services" transform="translate(-501.000000, -1956.000000)">
            <g id="Group" transform="translate(502.000000, 1954.000000)">
                <path d="M0.101398601,46.7379122 L0.727622378,45.7325013 L8.01258741,33.3668868 L24.627972,5.17466376 C24.841958,4.81446982 25.0874126,4.47306861 25.3328671,4.12853527 C25.5468531,3.83098376 25.7576923,3.53343224 25.9559441,3.22648436 L30.8493007,6.08924315 L34.7451049,8.32870982 C35.129021,8.55422255 35.5003497,8.798528 35.8716783,9.04283345 C36.2996503,9.32159224 36.7244755,9.60035103 37.1681818,9.85405285 C36.1548951,11.5798516 35.1636364,13.3150468 34.1723776,15.0502419 C33.0048951,17.092385 31.8374126,19.134528 30.6353147,21.1578783 C25.4839161,29.8275898 20.301049,38.4816407 15.1181818,47.1325595 L13.0223776,50.634271 C12.7895105,51.0195219 12.5314685,51.3922444 12.2734266,51.7649668 C11.9493007,52.2316528 11.6283217,52.6983389 11.3482517,53.1869498 L9.1548951,52.1001038 C8.16048951,51.5801716 7.16608392,51.0571074 6.19055944,50.5027219 C4.33076923,49.444065 2.51188811,48.3227656 0.693006993,47.2014662 C0.479020979,47.0699171 0.29020979,46.9039147 0.101398601,46.7379122 Z" id="Stroke-1" stroke="#EC1651" stroke-width="2.2027972" stroke-linejoin="round"></path>
                <g id="Group-5" transform="translate(121.727273, 0.037985)">
                    <mask id="mask-2" fill="white">
                        <use xlink:href="#path-1"></use>
                    </mask>
                    <g id="Clip-4"></g>
                    <path d="M40.8751049,47.8760388 C37.1492308,50.5790594 33.0929371,52.7684121 28.9485315,54.8262158 C28.1901399,55.2020703 27.8534266,55.0110109 27.4695105,54.3689261 C22.8184615,46.6137939 18.0981818,38.889983 13.4848951,31.1129261 C9.64258741,24.6325673 5.91041958,18.0895661 2.14363636,11.5716218 C1.39783217,10.2811879 1.37265734,10.155903 2.6786014,9.37287273 C6.23454545,7.24616242 9.85027972,5.20715152 13.4282517,3.11176242 C14.0890909,2.72337939 14.4006294,3.0052703 14.7184615,3.51893818 C17.600979,8.17953455 20.5684615,12.7931491 23.3597203,17.5007273 C28.8320979,26.7342206 34.2100699,36.0178279 39.6226573,45.2857745 C40.0600699,46.0343515 40.4597203,46.8017212 40.8751049,47.5628267 L40.8751049,47.8760388 Z" id="Fill-3" fill="#EC1651" mask="url(#mask-2)"></path>
                </g>
                <path d="M76.906014,94.9403181 C76.9595105,94.8463544 77.0193007,94.7555229 77.0822378,94.6709556 C78.8822378,92.2654865 79.3511189,89.2492538 78.3693007,86.3896272 C77.2521678,83.1384853 74.4357343,80.5325605 71.011958,79.5835278 C70.3668531,79.4049968 69.7028671,79.2828441 69.0042657,79.1606914 C69.1364336,76.5328417 68.2206993,74.0929193 66.3294406,72.0476441 C64.3311888,69.8864805 61.9836364,68.6962744 59.333986,68.505215 C59.333986,68.1732102 59.333986,67.8443375 59.333986,67.5123326 C59.2899301,64.8562938 58.2074126,62.3819181 56.2846853,60.5433629 C54.254965,58.6014478 51.5234965,57.5709799 48.5937762,57.6430187 C46.0039161,57.702529 43.8734965,58.7016756 42.2528671,60.6122696 C41.8972727,61.0319738 41.5511189,61.4579423 41.1955245,61.9027035 C39.6095105,59.1934187 37.4727972,57.4770162 34.7067133,56.6783253 C31.5693007,55.7700102 28.6458741,56.3682453 25.8074126,58.504352 C25.6972727,58.375935 25.5871329,58.2475181 25.4801399,58.115969 L23.2364336,55.4755908 L20.9832867,52.897855 C20.8133566,52.7036635 20.6434266,52.509472 20.4734965,52.3152805 C22.7360839,48.4972247 24.9986713,44.6823011 27.2644056,40.8673775 C31.6133566,33.5319496 35.9654545,26.1933896 40.3144056,18.8579617 C44.4745455,21.6549459 49.2829371,22.4129193 53.9465734,23.1489678 C54.2140559,23.1928175 54.4846853,23.2366672 54.7521678,23.2805168 L52.9112587,25.8739132 C51.4511189,27.9285847 49.990979,29.9832562 48.5654545,32.0598526 C47.4042657,33.7449338 46.2871329,35.6085459 45.9755944,37.8166914 C45.7899301,39.1196538 45.7679021,40.3975593 45.9126573,41.6222187 C46.1738462,43.8648175 48.8172028,45.6000126 51.1238462,45.816129 C55.8944755,46.2577581 60.5612587,44.9547956 65.3948252,41.8320708 C68.2395804,39.9935156 70.8137063,37.5661217 73.4885315,34.189695 C73.8944755,33.6791593 74.2752448,33.4317217 74.8385315,33.3064368 C76.2105594,33.0026211 77.5542657,32.5891811 78.8885315,32.1600805 C79.1717483,32.0723811 79.3322378,32.0849096 79.6311888,32.225855 C93.2948252,38.6717605 106.665804,46.7369726 120.502517,56.8787811 C124.442378,59.7665968 127.781189,62.3850502 130.704615,64.8813508 C131.547972,65.6048708 131.994825,66.6322065 131.963357,67.7754308 C131.925594,69.0564684 131.28049,70.2967884 130.232587,71.0923472 C129.618951,71.5590332 128.825944,71.6404684 127.907063,71.7375641 C126.107063,71.9317556 124.794825,71.6749217 123.501469,70.9200805 C117.387133,67.3557265 111.206713,63.8884684 105.026294,60.4212102 L102.197273,58.8332247 C101.165105,58.2506502 100.051119,57.7902284 98.9402797,57.3485993 C96.9955245,56.5749653 96.1364336,57.7526429 95.8563636,58.2944999 C95.1797902,59.6131229 95.5165035,60.7657435 96.8067133,61.5393775 C101.146224,64.1359059 105.488881,66.7293023 109.856713,69.2851132 C112.902867,71.0672902 115.974196,72.8087496 119.045524,74.5533411 L120.348322,75.2925217 C120.382937,75.7028296 120.398671,76.1381944 120.417552,76.5735593 C120.48993,79.3987326 118.340629,80.8864902 116.288881,81.115135 C114.63993,81.2967981 113.164056,81.0211714 111.776294,80.2663302 C107.276294,77.8138793 102.760559,75.3864853 98.2448252,72.9559593 L93.5937762,70.4502623 L92.611958,69.9459908 C91.8283916,69.5607399 90.940979,69.5168902 90.1762937,69.8269702 C89.4304895,70.1307859 88.8703497,70.725889 88.5965734,71.5057872 C88.218951,72.5707084 88.6406294,73.5009484 89.8427273,74.2683181 C90.9126573,74.9511205 92.0109091,75.5963375 93.1186014,76.2164975 L99.5602098,79.8121726 L107.156713,84.0530647 C107.817552,84.4257872 108.440629,84.8580199 109.063706,85.2839884 C109.715105,85.7350138 109.730839,85.9918478 109.567203,86.4052878 C109.551469,86.4397411 109.394126,86.9314841 109.381538,86.9659375 C108.594825,89.2148005 107.339231,90.1043229 105.098671,90.2421362 C103.613357,90.3329678 102.128042,90.0260199 100.419301,89.2711787 L93.0713986,85.9887156 L87.7972727,83.6270962 C86.9224476,83.2387132 86.035035,82.8753872 85.1287413,82.5590429 C83.6056643,82.0234502 82.3658042,82.5026647 81.7238462,83.8745338 C81.0881818,85.2370065 81.5759441,86.4710623 83.0297902,87.1726575 L90.6640559,90.830975 L95.4220979,93.1080272 L96.6713986,93.7313193 C96.9325874,93.8628684 97.1906294,93.9912853 97.4486713,94.1197023 C95.2081119,96.515775 93.0965734,97.5274502 90.4658042,97.5055253 C86.2773427,97.471072 81.9567133,96.6535884 76.906014,94.9403181 Z" id="Stroke-6" stroke="#EC1651" stroke-width="2.2027972" stroke-linejoin="round"></path>
                <path d="M87.2163636,14.7758681 C93.916014,14.5252984 100.43,15.5902196 106.912517,17.0184669 C109.502378,17.588513 112.145734,17.9706318 114.77965,18.3245615 C116.878601,18.6064524 118.942937,18.1773518 120.985245,17.7263263 C123.055874,17.2690366 123.062168,17.2753008 124.084895,18.9885712 C130.428951,29.6503118 136.773007,40.3120524 143.117063,50.973793 C143.296434,51.2807408 143.595385,51.5469712 143.161119,51.9196936 C140.574406,54.1466318 138.028601,56.4174196 135.41042,58.6130366 C134.699231,59.2081396 133.777203,59.5745978 132.977902,60.0820015 C132.531049,60.3670245 132.228951,60.2824572 131.832448,59.9723772 C123.131399,53.1725421 114.030699,46.8863748 104.624755,41.001119 C97.1132168,36.296673 89.2460839,32.1654051 81.1838462,28.3692742 C80.0855944,27.8493421 79.0502797,27.7240572 77.8733566,28.106176 C75.7429371,28.7983748 73.5747552,29.3778172 71.4411888,30.0512233 C71.1170629,30.1514512 70.8086713,30.458399 70.6135664,30.7465542 C68.1464336,34.3672863 64.9492308,37.2707627 61.0786014,39.5039651 C58.5327972,40.9729299 55.7478322,41.6995821 52.7772028,41.7716208 C52.3712587,41.7810172 51.9527273,41.7121105 51.5562238,41.6150148 C50.8481818,41.4364839 50.4831469,41.0324402 50.4453846,40.2713348 C50.3541259,38.520479 50.6593706,36.9074366 51.7387413,35.4384718 C55.6943357,30.0637518 59.6184615,24.670239 63.5646154,19.2892548 C64.559021,17.9299142 66.0946853,17.3379433 67.6838462,17.0247312 C70.8023776,16.4108354 73.9334965,15.806336 77.0897902,15.4524063 C80.4474825,15.0734196 83.8397902,14.9888524 87.2163636,14.7758681" id="Fill-8" fill="#EC1651"></path>
                <path d="M54.9755944,67.9946793 C55.1234965,68.8842017 54.5948252,69.6640999 54.0315385,70.4095447 C51.7532168,73.4257775 49.4654545,76.4357459 47.1556643,79.4300538 C46.047972,80.8614332 44.9245455,82.2896805 43.7224476,83.6490211 C41.6423776,85.9949799 39.0336364,86.179775 36.4972727,84.240992 C34.6563636,82.8315375 33.6965734,80.4385968 34.3007692,78.6125702 C34.4706993,78.1020344 34.7790909,77.6102914 35.1158042,77.1749265 C38.571049,72.7116538 42.0074126,68.2295884 45.5318881,63.8132975 C47.5206993,61.3232611 50.3182517,61.1979762 52.7696503,63.3309508 C54.2360839,64.6057241 54.963007,66.1091423 54.9755944,67.9946793" id="Fill-10" fill="#EC1651"></path>
                <path d="M52.2315385,93.3216378 C48.3892308,93.4406584 45.3588112,89.4221469 46.3752448,86.3182148 C46.5672028,85.7325081 46.8976224,85.1561978 47.2846853,84.6613227 C50.1577622,81.0249299 53.0686014,77.4135942 55.9511189,73.7803336 C56.8070629,72.7028839 57.9871329,72.5901275 59.2206993,72.7686584 C62.4147552,73.2322124 64.7182517,75.9289687 64.4916783,78.9890512 C64.4444755,79.6593251 64.1801399,80.4016378 63.771049,80.949759 C61.1151049,84.5109808 58.4182517,88.0440136 55.6773427,91.5488572 C54.8245455,92.6357033 53.7672028,93.5471505 52.2315385,93.3216378" id="Fill-12" fill="#EC1651"></path>
                <g id="Group-16" transform="translate(58.790210, 81.473136)">
                    <mask id="mask-4" fill="white">
                        <use xlink:href="#path-3"></use>
                    </mask>
                    <g id="Clip-15"></g>
                    <path d="M15.8359091,7.86037139 C15.6156294,8.46487079 15.5306643,9.16333382 15.153042,9.66134109 C13.1138811,12.3518332 11.0401049,15.0204005 8.90024476,17.6357217 C7.95933566,18.7852102 6.5463986,18.9512126 5.13031469,18.6787181 C2.71038462,18.2151641 0.372272727,15.7940344 0.196048951,13.4606041 C0.136258741,12.6807059 0.309335664,11.7222768 0.762482517,11.0927205 C2.71667832,8.37717139 4.77157343,5.72739685 6.87367133,3.11520776 C7.81772727,1.93753018 9.20863636,1.74647079 10.6876573,2.07221139 C13.3970979,2.67044655 15.710035,5.31082473 15.8359091,7.86037139" id="Fill-14" fill="#EC1651" mask="url(#mask-4)"></path>
                </g>
                <path d="M38.0587413,66.5849115 C37.8101399,67.2645818 37.7094406,68.0413479 37.2877622,68.6051297 C35.9881119,70.3497212 34.6160839,72.0535952 33.1748252,73.6979588 C32.0954545,74.9320145 30.6541958,75.201377 29.0587413,74.6626521 C26.5097902,73.807583 24.8923077,72.1318982 24.4517483,69.6042764 C24.3227273,68.8682279 24.4863636,67.9129309 24.9017483,67.2927709 C26.1479021,65.4228945 27.5608392,63.6469818 28.958042,61.8710691 C30.0468531,60.4898036 31.6013986,60.3488582 33.2125874,60.7278448 C36.0384615,61.3887224 37.8951049,63.7346812 38.0587413,66.5849115" id="Fill-17" fill="#EC1651"></path>
            </g>
        </g>
    </g>
</svg>
